<svg xmlns="http://www.w3.org/2000/svg" viewBox="0 0 400.29 213.39"><defs><style>.cls-1{fill:#fff;}.cls-2{fill:#00edff;}</style></defs><g id="Layer_2" data-name="Layer 2"><g id="BASE"><path class="cls-1" d="M297.83,52.57c-11.72-2.87-23.42-5.78-35-9.16l-17.39-5.12-8.74-2.61-8.81-2.41c-11.75-3.19-23.58-6.13-35.61-8.46a238.94,238.94,0,0,0-36.61-4.67c-11.12-.55-22.53.59-33.25,1.21L116.87,0H95.3L89.73,21.4H82.22L76.64,0H55.07L49.5,21.4H41.61L36,0H14.47C-6.79,79.41,1.66,144,1.66,144,1.73,142.88,8.92,44.45,21.3,8.76h8l5.58,21.4H56.26l5.58-21.4h8l5.58,21.4h21l5.58-21.4h8l5.57,21.4,3.74-.2c12.33-.69,24.09-1.87,35.93-1.34a259.08,259.08,0,0,1,35.45,4.16c23.66,4.15,46.75,10.87,70.29,17A606.16,606.16,0,0,0,332.64,64c12,1.62,24.12,2.91,36.23,3.78s19.3,1.48,31.42,1.15c-24.2-1.32-43.27-4.52-67-9C321.4,57.79,309.59,55.27,297.83,52.57Z"/><path class="cls-1" d="M283.75,96.1a357.3,357.3,0,0,0-59.53,9.14c-9.74,2.41-19.37,5.19-28.93,8.14-9.47,3.27-18.93,6.47-28.2,10.23,19.48-4.5,38.81-9.31,58.31-12.82a537.52,537.52,0,0,1,58.87-7.34c19.75-1.47,39.62-1.91,59.52-2.63l29.89-.88c10-.53,16.63-.51,26.61-1.21-19.92-1.8-36.54-3-56.51-3.55S303.78,94.79,283.75,96.1Z"/><path class="cls-2" d="M26.59,194.69h19.8V198H22.74v-44H45.88l-.45,3.34H26.59v16.65h15.5v3.41H26.59Z"/><path class="cls-2" d="M58.47,198H54.74v-46h3.73Z"/><path class="cls-2" d="M77.62,198l13.76-44h4.69l14.72,44h-4.05l-3.92-12H85.14l-3.66,12Zm8.55-15.3h15.55l-8-24.68Zm1.28-35,11-10.09,2.44,3.21-12,8.74Z"/><path class="cls-2" d="M119.91,166.53l.26,2.38a21.62,21.62,0,0,1,11-3.28c3.34,0,6.17.9,7.91,2.64s2.63,4.11,2.63,8V198H138V177.2c0-3.28-.52-5-1.8-6.3a7.65,7.65,0,0,0-5.6-1.86,23.25,23.25,0,0,0-10,2.51V198H117v-31.5Z"/><path class="cls-2" d="M168.88,167.11c3.47,1.86,5.4,5.27,5.4,10,0,7.26-4.5,11.5-12,11.5a15.82,15.82,0,0,1-5.53-.9,7.62,7.62,0,0,0-2.18,4.83A2.12,2.12,0,0,0,155,194c.51.58,1.48.71,3.34.71h6.3c5.08,0,8,1,9.84,2.89a8,8,0,0,1,2.12,5.79,9.13,9.13,0,0,1-2.57,6.75c-2.25,2.12-5.92,3.21-11.7,3.21-9.13,0-13.44-3.21-13.44-8.8a10,10,0,0,1,3.67-7.52,4.47,4.47,0,0,1-1.55-3.6,10.23,10.23,0,0,1,3.35-7c-2.64-2-4.12-5.14-4.12-9.32,0-7.27,4.5-11.51,12-11.51a14.27,14.27,0,0,1,3.79.45l4-8.23a9.24,9.24,0,0,1,3.09,1.48Zm-10.73,31.18c-1.29,0-2.19-.07-3-.13a7.77,7.77,0,0,0-2.7,5.78c0,3.86,2.64,6.17,10.09,6.17,7.78,0,10.42-2.18,10.42-6.23s-2-5.59-8-5.59Zm12.53-21.15c0-5.34-2.63-8.29-8.42-8.29s-8.42,3-8.42,8.29,2.64,8.29,8.42,8.29S170.68,182.47,170.68,177.14Z"/><path class="cls-2" d="M204.68,198l-.26-2.38a21.18,21.18,0,0,1-10.93,3.28c-3.34,0-6.17-.9-7.9-2.64s-2.64-4.11-2.64-8V166.53h3.73v20.83c0,3.28.52,5,1.8,6.3s3.09,1.86,5.59,1.86a22.88,22.88,0,0,0,9.84-2.5V166.53h3.73V198Z"/><path class="cls-2" d="M221,198h-3.73v-46H221Z"/><path class="cls-2" d="M242.66,165.63c9.38,0,13.56,6,13.56,16.65s-4.18,16.65-13.56,16.65-13.56-6-13.56-16.65S233.27,165.63,242.66,165.63Zm0,30.09c7.2,0,9.71-4.76,9.71-13.44s-2.51-13.43-9.71-13.43S233,173.6,233,182.28,235.46,195.72,242.66,195.72Z"/></g></g></svg>